<svg width="12" height="13" viewBox="0 0 12 13" fill="none" xmlns="http://www.w3.org/2000/svg">
<path d="M11.5874 11.1044H0.409773C0.183462 11.1044 0 11.2917 0 11.5228V11.8338C0 12.0649 0.183462 12.2522 0.409773 12.2522H11.5874C11.8137 12.2522 11.9971 12.0649 11.9971 11.8338V11.5228C11.9971 11.2917 11.8137 11.1044 11.5874 11.1044Z" fill="#EE4380"/>
<path d="M9.28248 10.5576H5.43433V3.00153H9.28248V10.5576ZM6.56496 9.40324H8.15185V4.15585H6.56496V9.40324Z" fill="#EE4380"/>
<path d="M11.1547 10.5576H8.15112V1.09519C8.15283 0.803618 8.26766 0.524626 8.47048 0.319342C8.67329 0.114059 8.94753 -0.000774148 9.23312 3.92836e-06H10.9187C11.2042 -0.000580672 11.4782 0.114338 11.6809 0.319601C11.8835 0.524863 11.9983 0.803744 12 1.09519V9.69968C11.9992 9.92786 11.9098 10.1464 11.7513 10.3073C11.5928 10.4681 11.3782 10.5582 11.1547 10.5576ZM9.28175 9.40325H10.8686V1.15214H9.28247L9.28175 9.40325Z" fill="#EE4380"/>
<path d="M5.99999 9.97933H3.28247V2.16702C3.28294 2.09827 3.29667 2.03029 3.32287 1.96696C3.34907 1.90363 3.38723 1.84618 3.43518 1.79791C3.48312 1.74964 3.53991 1.71148 3.6023 1.68562C3.66469 1.65975 3.73146 1.64669 3.7988 1.64717H5.48366C5.551 1.64669 5.61777 1.65975 5.68016 1.68562C5.74255 1.71148 5.79934 1.74964 5.84728 1.79791C5.89523 1.84618 5.93339 1.90363 5.95959 1.96696C5.9858 2.03029 5.99952 2.09827 5.99999 2.16702V9.97933Z" fill="white"/>
<path d="M6.56496 10.5576H2.71753V2.16703C2.71923 1.87546 2.83407 1.59646 3.03688 1.39118C3.2397 1.1859 3.51394 1.07106 3.79953 1.07184H5.48368C5.76914 1.07126 6.04321 1.18618 6.24586 1.39144C6.44852 1.5967 6.56326 1.87558 6.56496 2.16703V10.5576ZM3.84745 9.40327H5.43433V2.22471H3.84816L3.84745 9.40327Z" fill="#EE4380"/>
<path d="M3.84817 10.5576H0.844594C0.621348 10.5578 0.40714 10.4676 0.248946 10.3067C0.0907533 10.1459 0.00148975 9.92761 0.000732422 9.69969V6.08485C0.00167907 5.82847 0.1022 5.58293 0.280242 5.40212C0.458284 5.2213 0.699307 5.11997 0.950434 5.12036H3.84817V10.5576ZM1.13065 9.40326H2.71754V6.27469H1.13065V9.40326Z" fill="#EE4380"/>
</svg>
