<svg width="12" height="12" viewBox="0 0 12 12" fill="none" xmlns="http://www.w3.org/2000/svg">
<path d="M5.54623 11.0584L11.1583 5.44659C11.2459 5.35904 11.3154 5.2551 11.3628 5.14071C11.4102 5.02632 11.4346 4.90371 11.4346 4.7799V1.50794C11.4347 1.38416 11.4104 1.26158 11.363 1.14719C11.3157 1.03281 11.2463 0.92887 11.1588 0.841312C11.0712 0.753754 10.9673 0.684296 10.8529 0.636906C10.7385 0.589516 10.6159 0.565124 10.4921 0.565125H7.21941C6.96948 0.565223 6.72983 0.664544 6.55315 0.841245L0.941051 6.45308C0.764367 6.62986 0.665122 6.86953 0.665122 7.11941C0.665122 7.3693 0.764367 7.60897 0.941051 7.78575L4.2137 11.0584C4.30117 11.1459 4.40503 11.2154 4.51935 11.2627C4.63367 11.3101 4.75621 11.3345 4.87997 11.3345C5.00372 11.3345 5.12626 11.3101 5.24058 11.2627C5.35491 11.2154 5.45877 11.1459 5.54623 11.0584Z" fill="white"/>
<path d="M4.88004 11.9004C5.07815 11.901 5.27443 11.8623 5.45747 11.7866C5.64052 11.7108 5.80669 11.5995 5.94635 11.459L11.5584 5.84646C11.6987 5.70665 11.8099 5.54051 11.8857 5.35759C11.9614 5.17467 12.0003 4.97859 12 4.78061V1.50793C11.9996 1.10824 11.8407 0.725024 11.558 0.442334C11.2753 0.159644 10.892 0.000568099 10.4921 0H7.21948C6.8198 0.00119863 6.43669 0.159774 6.15317 0.441364L0.541791 6.05606C0.259611 6.33921 0.101176 6.7226 0.101176 7.12227C0.101176 7.52194 0.259611 7.90532 0.541791 8.18848L3.81444 11.4612C3.95426 11.601 4.12041 11.7119 4.3033 11.7873C4.48619 11.8626 4.68221 11.9011 4.88004 11.9004ZM10.4921 1.13095C10.592 1.13114 10.6878 1.17094 10.7584 1.24162C10.8289 1.3123 10.8686 1.40807 10.8686 1.50793V4.78061C10.8688 4.83027 10.8592 4.87949 10.8403 4.92541C10.8213 4.97133 10.7935 5.01305 10.7584 5.04814L5.14626 10.6593C5.0746 10.7278 4.97923 10.7661 4.88004 10.7661C4.78084 10.7661 4.68548 10.7278 4.61382 10.6593L1.34188 7.38658C1.27117 7.31577 1.23146 7.21981 1.23146 7.11976C1.23146 7.01971 1.27117 6.92375 1.34188 6.85294L6.95326 1.24111C7.02405 1.17082 7.1197 1.13124 7.21948 1.13095H10.4921Z" fill="#919EAB"/>
<path d="M8.22781 3.77205C8.28849 3.83279 8.36056 3.88097 8.43988 3.91384C8.51921 3.94672 8.60424 3.96364 8.69012 3.96364C8.77599 3.96364 8.86102 3.94672 8.94035 3.91384C9.01968 3.88097 9.09174 3.83279 9.15242 3.77205L9.1696 3.75488C9.23038 3.69417 9.2786 3.62207 9.3115 3.54272C9.3444 3.46337 9.36133 3.37831 9.36133 3.29242C9.36133 3.20652 9.3444 3.12147 9.3115 3.04212C9.2786 2.96276 9.23038 2.89067 9.1696 2.82995C9.10892 2.76922 9.03685 2.72103 8.95752 2.68816C8.8782 2.65529 8.79317 2.63837 8.70729 2.63837C8.62142 2.63837 8.53639 2.65529 8.45706 2.68816C8.37773 2.72103 8.30567 2.76922 8.24499 2.82995L8.22781 2.84712C8.16703 2.90784 8.11881 2.97993 8.08591 3.05928C8.05301 3.13864 8.03608 3.22369 8.03608 3.30959C8.03608 3.39548 8.05301 3.48054 8.08591 3.55989C8.11881 3.63924 8.16703 3.71133 8.22781 3.77205Z" fill="#919EAB"/>
<path d="M5.37499 11.2294C5.50632 11.098 5.58008 10.9198 5.58008 10.734C5.58008 10.5483 5.50632 10.3701 5.37499 10.2387L1.76098 6.62406C1.62961 6.49284 1.45148 6.41913 1.26576 6.41913C1.08003 6.41913 0.901905 6.49284 0.770528 6.62406C0.639206 6.7555 0.565445 6.93367 0.565445 7.11943C0.565445 7.3052 0.639206 7.48336 0.770528 7.61481L4.38454 11.2294C4.51592 11.3606 4.69404 11.4343 4.87977 11.4343C5.06549 11.4343 5.24362 11.3606 5.37499 11.2294Z" fill="white"/>
<path d="M4.87982 11.9998C5.13017 11.9997 5.37487 11.9254 5.58298 11.7863C5.7911 11.6472 5.95328 11.4495 6.04902 11.2183C6.14477 10.9871 6.16978 10.7327 6.12089 10.4873C6.07201 10.2418 5.95142 10.0164 5.77438 9.83946L2.16036 6.22557C2.04329 6.10755 1.90392 6.01396 1.75035 5.95022C1.59679 5.88649 1.43208 5.85389 1.2658 5.85431C1.0154 5.85448 0.770656 5.92882 0.562501 6.06796C0.354347 6.2071 0.19212 6.40478 0.0963149 6.63604C0.000510216 6.8673 -0.0245733 7.12175 0.0242338 7.36725C0.073041 7.61275 0.193549 7.83828 0.370532 8.01535L3.98526 11.63C4.10267 11.7474 4.24213 11.8406 4.39564 11.904C4.54915 11.9675 4.71369 12 4.87982 11.9998ZM1.2658 6.98598C1.28339 6.98586 1.30081 6.98929 1.31704 6.99605C1.33327 7.00281 1.34797 7.01276 1.36027 7.02532L4.975 10.6399C4.98856 10.6522 4.99949 10.6671 5.00713 10.6837C5.01477 10.7003 5.01896 10.7183 5.01945 10.7366C5.01994 10.7548 5.01672 10.773 5.00998 10.79C5.00324 10.807 4.99313 10.8224 4.98024 10.8354C4.96736 10.8484 4.95198 10.8586 4.93503 10.8655C4.91808 10.8723 4.89992 10.8757 4.88163 10.8754C4.86335 10.875 4.84532 10.8709 4.82865 10.8634C4.81198 10.8559 4.79701 10.8451 4.78464 10.8316L1.16991 7.21489C1.14478 7.18945 1.13069 7.15514 1.13069 7.11939C1.13069 7.08364 1.14478 7.04933 1.16991 7.02389C1.18254 7.01148 1.19754 7.00173 1.21401 6.99522C1.23048 6.98871 1.2481 6.98556 1.2658 6.98598Z" fill="#919EAB"/>
</svg>
